<svg xmlns="http://www.w3.org/2000/svg" viewBox="0 0 24 24" fill="none" stroke="currentColor" stroke-width="2" stroke-linecap="round" stroke-linejoin="round">
  <path d="M12 2C6.48 2 2 6.48 2 12c0 2.68 1.09 5.11 2.86 6.89 1.22 1.22 2.88 2 4.64 2 1.39 0 2.71-.5 3.75-1.32.95.8 2.23 1.32 3.62 1.32h.13c1.76 0 3.42-.78 4.64-2C20.91 17.11 22 14.68 22 12c0-5.52-4.48-10-10-10z"/>
  <path d="M7 13c1.1 0 2-.9 2-2s-.9-2-2-2-2 .9-2 2 .9 2 2 2zm10 0c1.1 0 2-.9 2-2s-.9-2-2-2-2 .9-2 2 .9 2 2 2z"/>
  <path d="M12 18c-1.5 0-2.8.8-3.5 2"/>
</svg>
